<?xml version="1.0" standalone="no"?>
<!DOCTYPE svg PUBLIC "-//W3C//DTD SVG 20010904//EN"
 "http://www.w3.org/TR/2001/REC-SVG-20010904/DTD/svg10.dtd">
<svg version="1.0" xmlns="http://www.w3.org/2000/svg"
 width="1152.000000pt" height="1060.000000pt" viewBox="0 0 1152.000000 1060.000000"
 preserveAspectRatio="xMidYMid meet">

<g transform="translate(0.000000,1060.000000) scale(0.100000,-0.100000)"
fill="#000000" stroke="none">
<path d="M1595 10323 c-418 -57 -752 -358 -858 -773 l-22 -85 0 -4095 0 -4095
22 -85 c49 -193 145 -361 281 -491 135 -131 286 -215 472 -262 l85 -22 4105 0
4105 0 85 22 c193 49 361 145 491 281 131 135 215 286 262 472 l22 85 0 4095
0 4095 -22 85 c-96 377 -368 650 -748 753 l-80 22 -4085 1 c-2247 1 -4098 -1
-4115 -3z m8211 -192 c320 -66 579 -325 645 -644 18 -89 19 -203 19 -4117 0
-3905 -1 -4028 -19 -4116 -66 -320 -325 -579 -644 -645 -89 -18 -203 -19
-4127 -19 -3924 0 -4038 1 -4127 19 -319 66 -578 325 -644 645 -18 88 -19 211
-19 4116 0 3905 1 4028 19 4116 66 317 324 578 639 644 83 18 253 19 4127 19
3921 1 4043 0 4131 -18z"/>
<path d="M4079 9221 c-94 -30 -157 -72 -234 -153 -147 -157 -247 -424 -302
-808 -15 -102 -18 -193 -18 -495 1 -333 3 -384 23 -510 82 -517 251 -798 532
-886 90 -28 232 -28 326 0 322 96 515 499 565 1181 14 185 6 584 -15 750 -68
542 -252 845 -562 924 -84 22 -242 20 -315 -3z m288 -316 c66 -20 140 -86 181
-162 99 -187 149 -565 139 -1048 -11 -516 -65 -753 -207 -908 -74 -81 -142
-112 -245 -112 -63 0 -89 5 -120 22 -159 85 -259 330 -294 723 -14 146 -14
559 -1 715 45 532 185 783 436 785 33 0 83 -7 111 -15z"/>
<path d="M5777 9225 c-153 -42 -286 -165 -380 -351 -34 -68 -91 -234 -117
-341 -96 -401 -103 -1023 -15 -1443 101 -483 333 -743 665 -743 318 0 534 229
652 693 84 332 109 829 62 1240 -64 556 -246 863 -562 945 -73 18 -237 19
-305 0z m321 -340 c124 -67 188 -201 238 -494 65 -383 52 -1019 -27 -1328 -42
-167 -138 -307 -247 -360 -48 -24 -70 -28 -137 -28 -70 0 -87 4 -134 30 -98
54 -176 181 -226 367 -72 270 -91 707 -49 1132 42 424 148 643 344 707 14 5
61 7 105 6 66 -3 89 -8 133 -32z"/>
<path d="M2596 9218 c-2 -7 -14 -56 -26 -108 -27 -116 -75 -224 -121 -268 -59
-58 -179 -107 -321 -132 -121 -20 -108 -2 -108 -155 l0 -135 250 0 250 0 0
-1000 0 -1000 145 0 145 0 0 1405 0 1405 -105 0 c-76 0 -107 -4 -109 -12z"/>
<path d="M8636 9198 c-249 -602 -1160 -2818 -1163 -2830 -5 -16 3 -18 75 -18
l80 0 30 73 c23 53 1120 2723 1149 2795 4 9 -15 12 -76 12 l-82 0 -13 -32z"/>
<path d="M7338 9150 c-137 -23 -270 -133 -351 -289 -126 -239 -121 -575 10
-801 50 -86 162 -197 238 -235 56 -28 68 -30 170 -30 103 0 114 2 178 32 130
62 249 210 304 378 22 68 27 103 30 230 4 110 1 169 -10 220 -57 266 -228 462
-433 495 -66 11 -69 11 -136 0z m179 -302 c79 -37 159 -146 183 -250 16 -73
12 -210 -9 -277 -34 -109 -108 -203 -188 -236 -19 -8 -62 -15 -94 -15 -172 0
-299 171 -299 399 1 101 12 157 46 226 78 155 225 218 361 153z"/>
<path d="M8740 7772 c-195 -75 -331 -253 -377 -495 -21 -110 -13 -315 15 -407
75 -244 233 -410 420 -440 336 -55 623 330 574 769 -16 137 -40 217 -99 319
-64 110 -138 183 -232 230 -68 34 -83 37 -165 39 -66 2 -103 -2 -136 -15z
m225 -286 c188 -87 260 -381 148 -604 -58 -116 -141 -175 -248 -175 -71 1
-120 20 -175 69 -169 152 -175 480 -13 650 81 84 189 107 288 60z"/>
<path d="M4720 3535 l0 -1925 195 0 195 0 0 814 0 815 523 3 c503 4 525 5 602
26 250 70 404 225 523 527 122 312 133 757 25 1075 -79 235 -228 416 -418 510
-154 76 -124 73 -927 77 l-718 4 0 -1926z m1335 1460 c42 -8 101 -26 131 -39
67 -31 162 -124 197 -192 63 -125 94 -334 78 -523 -24 -272 -101 -405 -286
-496 -122 -61 -166 -65 -641 -65 l-424 0 0 665 0 665 434 0 c341 0 451 -3 511
-15z"/>
</g>
</svg>
