<?xml version="1.0" standalone="no"?>
<!DOCTYPE svg PUBLIC "-//W3C//DTD SVG 20010904//EN"
 "http://www.w3.org/TR/2001/REC-SVG-20010904/DTD/svg10.dtd">
<svg version="1.0" xmlns="http://www.w3.org/2000/svg"
 width="920.000000pt" height="512.000000pt" viewBox="0 0 920.000000 512.000000"
 preserveAspectRatio="xMidYMid meet">

<g transform="translate(0.000000,512.000000) scale(0.100000,-0.100000)"
fill="#000000" stroke="none">
<path d="M4410 5114 c-19 -2 -78 -9 -130 -15 -255 -28 -547 -116 -795 -238
-291 -143 -458 -263 -690 -496 -233 -232 -363 -414 -502 -701 -113 -233 -189
-483 -229 -749 -18 -122 -26 -455 -13 -585 36 -384 161 -768 349 -1075 22 -36
40 -69 40 -74 0 -10 112 -160 193 -260 139 -170 359 -368 548 -493 823 -547
1902 -570 2743 -60 212 129 407 289 565 464 86 96 271 333 271 348 0 5 18 39
40 75 189 308 312 689 349 1075 13 130 5 463 -13 586 -66 441 -230 833 -499
1194 -93 123 -365 395 -490 489 -359 268 -752 432 -1191 497 -96 14 -472 27
-546 18z m463 -209 c365 -43 728 -176 1031 -379 149 -100 203 -143 340 -276
199 -192 356 -407 477 -655 283 -577 316 -1246 92 -1855 -47 -128 -155 -344
-232 -462 l-63 -98 -1918 0 -1918 0 -62 95 c-154 239 -274 530 -330 799 -144
700 28 1416 474 1970 154 191 387 395 608 532 270 167 621 290 945 329 149 18
403 18 556 0z"/>
</g>
</svg>
