<?xml version="1.0" standalone="no"?>
<!DOCTYPE svg PUBLIC "-//W3C//DTD SVG 20010904//EN"
 "http://www.w3.org/TR/2001/REC-SVG-20010904/DTD/svg10.dtd">
<svg version="1.0" xmlns="http://www.w3.org/2000/svg"
 width="33.000000pt" height="33.000000pt" viewBox="0 0 33.000000 33.000000"
 preserveAspectRatio="xMidYMid meet">

<g transform="translate(0.000000,33.000000) scale(0.100000,-0.100000)"
fill="#000000" stroke="none">
<path d="M45 300 c-3 -5 -1 -10 4 -10 6 0 11 5 11 10 0 6 -2 10 -4 10 -3 0 -8
-4 -11 -10z"/>
<path d="M94 296 c-11 -28 0 -91 16 -91 11 0 16 14 18 53 2 42 0 52 -13 52 -9
0 -18 -6 -21 -14z m26 -41 c0 -25 -4 -45 -10 -45 -5 0 -10 20 -10 45 0 25 5
45 10 45 6 0 10 -20 10 -45z"/>
<path d="M164 297 c-11 -29 0 -92 16 -92 11 0 15 12 15 49 0 49 -19 74 -31 43z
m26 -42 c0 -25 -4 -45 -10 -45 -5 0 -10 20 -10 45 0 25 5 45 10 45 6 0 10 -20
10 -45z"/>
<path d="M222 280 c0 -19 2 -27 5 -17 2 9 2 25 0 35 -3 9 -5 1 -5 -18z"/>
<path d="M242 275 c0 -16 2 -22 5 -12 2 9 2 23 0 30 -3 6 -5 -1 -5 -18z"/>
<path d="M142 103 c0 -43 3 -64 5 -46 3 24 10 33 26 35 17 2 23 11 25 39 3 31
-1 37 -20 43 -13 3 -26 6 -30 6 -5 0 -7 -35 -6 -77z m46 30 c-2 -17 -10 -29
-20 -31 -14 -3 -18 3 -18 27 0 25 4 31 21 31 16 0 20 -5 17 -27z"/>
</g>
</svg>
