<?xml version="1.0" standalone="no"?>
<!DOCTYPE svg PUBLIC "-//W3C//DTD SVG 20010904//EN"
 "http://www.w3.org/TR/2001/REC-SVG-20010904/DTD/svg10.dtd">
<svg version="1.0" xmlns="http://www.w3.org/2000/svg"
 width="518.000000pt" height="488.000000pt" viewBox="0 0 518.000000 488.000000"
 preserveAspectRatio="xMidYMid meet">

<g transform="translate(0.000000,488.000000) scale(0.100000,-0.100000)"
fill="#000000" stroke="none">
<path d="M702 4733 c-27 -4 -33 -8 -30 -26 l3 -22 1856 -1 c1021 -1 1862 -4
1868 -8 6 -4 11 -15 11 -25 0 -15 14 -21 83 -31 45 -7 97 -19 116 -27 39 -15
54 -7 49 28 -3 26 -45 41 -163 59 -43 7 -64 15 -77 32 l-17 23 -1833 1 c-1008
0 -1848 -1 -1866 -3z"/>
<path d="M463 4654 c-17 -7 -38 -23 -47 -35 -8 -12 -35 -43 -59 -68 -49 -52
-54 -62 -71 -143 -13 -60 -3 -117 21 -125 12 -4 21 23 42 137 15 76 17 80 40
80 20 0 42 23 58 61 9 20 21 28 50 33 132 24 173 38 173 57 0 17 -8 19 -87 18
-52 0 -101 -6 -120 -15z"/>
<path d="M4676 4562 c-8 -14 43 -105 71 -128 23 -18 27 -30 34 -115 5 -52 8
-929 8 -1949 0 -1692 -1 -1861 -16 -1923 -13 -55 -22 -71 -40 -78 -13 -5 -28
-21 -34 -36 -6 -16 -14 -34 -18 -41 -3 -8 -33 -23 -66 -34 -33 -12 -74 -33
-91 -48 -31 -26 -33 -27 -220 -33 -311 -11 -3600 -8 -3679 3 -42 6 -80 18 -95
30 -14 11 -39 26 -56 34 -21 9 -36 27 -47 55 -9 22 -24 41 -32 41 -24 0 -43
41 -54 120 -15 97 -19 110 -35 104 -29 -11 -35 -49 -20 -135 16 -97 28 -129
47 -129 18 0 44 -30 49 -55 2 -13 17 -24 46 -33 34 -11 43 -20 50 -45 6 -21
17 -34 37 -41 21 -7 656 -11 2015 -11 2113 0 2041 -2 2053 46 3 12 30 31 72
50 36 16 69 37 72 47 12 32 58 92 71 92 7 0 21 17 30 38 16 34 17 175 20 1947
3 2130 4 2116 -60 2133 -26 6 -33 15 -45 55 -11 39 -18 47 -38 47 -13 0 -26
-4 -29 -8z"/>
<path d="M2292 4380 c-70 -6 -104 -14 -142 -34 -28 -15 -81 -31 -122 -36 -102
-15 -147 -28 -190 -55 -20 -14 -65 -34 -100 -45 -35 -12 -75 -29 -89 -39 -14
-11 -53 -33 -87 -50 -35 -17 -71 -40 -82 -51 -11 -11 -34 -26 -53 -33 -18 -8
-46 -28 -62 -46 -17 -18 -45 -41 -64 -53 -50 -32 -160 -132 -181 -165 -9 -15
-50 -64 -89 -108 -40 -44 -84 -100 -98 -125 -15 -25 -39 -59 -53 -76 -14 -17
-37 -57 -50 -90 -13 -32 -31 -68 -42 -80 -10 -11 -29 -54 -43 -95 -14 -41 -35
-87 -46 -102 -13 -19 -33 -85 -55 -190 -18 -89 -41 -187 -50 -217 -11 -37 -18
-113 -21 -235 -6 -195 6 -340 32 -379 9 -13 26 -84 39 -158 18 -101 31 -148
54 -189 16 -30 37 -79 46 -110 8 -30 27 -73 41 -94 15 -21 35 -61 46 -90 10
-28 33 -65 50 -81 17 -16 40 -47 51 -69 11 -22 36 -57 54 -78 19 -20 34 -40
34 -45 0 -4 53 -60 118 -125 168 -169 184 -183 212 -197 14 -7 36 -22 50 -35
14 -12 52 -37 85 -55 33 -18 70 -42 82 -54 11 -12 53 -32 91 -44 38 -12 82
-32 96 -43 14 -11 59 -30 99 -41 39 -11 88 -30 107 -43 41 -27 166 -48 395
-66 118 -10 193 -10 341 -1 233 15 355 35 438 72 34 16 96 37 137 48 44 11 85
29 101 43 14 13 49 32 76 42 28 9 64 28 80 42 15 13 53 35 84 48 31 14 60 32
64 40 5 8 34 32 64 52 30 20 74 54 97 76 23 21 46 39 51 39 5 0 14 11 20 25 7
14 28 35 47 46 19 12 44 38 56 59 12 21 31 43 43 49 12 7 33 33 46 59 14 26
39 63 56 82 17 19 39 51 49 70 9 19 27 46 39 60 12 14 35 56 50 93 16 37 36
73 46 80 10 7 29 53 44 107 15 52 36 110 47 129 11 19 26 76 34 130 8 53 20
123 25 156 6 33 13 146 16 250 5 169 3 211 -20 379 -20 150 -31 199 -51 238
-14 26 -34 85 -45 130 -10 44 -28 90 -38 102 -23 25 -45 67 -62 120 -7 22 -27
58 -44 80 -17 23 -40 61 -51 86 -11 25 -30 53 -43 63 -12 10 -30 33 -38 50
-18 35 -23 41 -186 205 -62 63 -129 123 -151 133 -21 11 -40 26 -43 33 -6 17
-159 121 -206 141 -20 8 -46 27 -57 41 -16 21 -42 33 -108 50 -47 13 -95 32
-107 43 -30 28 -68 41 -171 56 -49 8 -115 25 -145 39 -90 41 -382 57 -648 36z
m523 -136 c166 -14 186 -18 256 -50 42 -19 83 -34 91 -34 31 0 117 -31 154
-56 21 -15 64 -35 94 -46 30 -10 68 -31 85 -47 16 -15 57 -43 90 -61 33 -18
62 -36 65 -39 3 -4 23 -20 45 -37 22 -16 58 -47 81 -69 23 -22 49 -47 58 -55
63 -60 182 -192 204 -225 14 -22 38 -52 53 -66 15 -14 34 -49 43 -78 8 -29 29
-68 44 -86 16 -18 37 -55 47 -81 9 -27 34 -85 56 -129 26 -54 42 -104 49 -151
5 -39 21 -93 34 -120 32 -63 46 -181 46 -384 0 -218 -15 -363 -44 -425 -13
-27 -33 -93 -45 -146 -11 -53 -36 -127 -55 -165 -19 -38 -42 -86 -52 -108 -14
-31 -29 -44 -71 -62 l-53 -24 -1561 0 -1562 -1 -30 28 c-51 49 -94 126 -125
223 -17 52 -39 113 -51 136 -39 79 -61 259 -61 500 1 275 17 435 54 526 14 36
37 103 50 147 13 45 36 100 51 122 15 23 33 59 41 81 7 22 27 57 44 78 17 21
41 63 55 94 13 30 33 60 45 66 11 6 27 25 36 43 9 18 33 50 53 72 76 83 253
255 262 255 5 0 26 15 46 34 21 18 54 41 73 51 19 10 52 32 72 49 20 18 66 42
102 55 36 13 66 27 66 31 0 11 63 39 126 56 31 8 79 25 107 38 76 36 125 46
276 61 190 18 347 18 556 -1z"/>
</g>
</svg>
