<?xml version="1.0" standalone="no"?>
<!DOCTYPE svg PUBLIC "-//W3C//DTD SVG 20010904//EN"
 "http://www.w3.org/TR/2001/REC-SVG-20010904/DTD/svg10.dtd">
<svg version="1.0" xmlns="http://www.w3.org/2000/svg"
 width="1292.000000pt" height="1140.000000pt" viewBox="0 0 1292.000000 1140.000000"
 preserveAspectRatio="xMidYMid meet">

<g transform="translate(0.000000,1140.000000) scale(0.100000,-0.100000)"
fill="#000000" stroke="none">
<path d="M6035 10935 c-2024 -18 -3999 -35 -4388 -39 -602 -6 -713 -9 -738
-21 -16 -9 -29 -18 -29 -21 0 -2 441 -747 981 -1655 539 -908 978 -1656 976
-1662 -2 -7 -503 -835 -1112 -1841 -776 -1283 -1103 -1831 -1095 -1836 9 -6 8
-11 -6 -19 -11 -5 -25 -14 -32 -19 -11 -7 232 -414 1049 -1758 584 -962 1066
-1753 1071 -1759 5 -6 19 -3 38 8 29 18 30 18 30 -2 0 -14 6 -21 19 -21 11 0
2083 18 4605 40 4442 39 4587 41 4605 59 10 10 26 23 36 28 15 9 -123 236
-1056 1739 -591 951 -1074 1738 -1074 1749 0 19 2228 3518 2267 3559 10 11 18
22 18 25 -1 9 42 -72 -955 1771 -617 1142 -923 1699 -932 1696 -7 -3 -13 -1
-13 4 0 13 105 13 -4265 -25z m5122 -1724 c492 -909 892 -1656 889 -1658 -2
-2 -2051 1 -4552 7 -3494 9 -4551 14 -4556 23 -4 7 -434 730 -955 1607 l-948
1595 75 3 c117 5 8581 80 8884 78 l270 -1 893 -1654z m-572 -1760 l1460 -6
-1122 -1755 c-617 -965 -1122 -1757 -1122 -1760 -1 -3 13 -14 31 -24 l31 -19
-22 -18 -22 -18 1047 -1686 c575 -927 1044 -1688 1041 -1691 -2 -2 -2058 -22
-4568 -44 -3679 -33 -4564 -38 -4570 -28 -4 7 -473 778 -1042 1713 -757 1246
-1030 1703 -1022 1710 7 6 502 820 1100 1810 599 990 1095 1808 1104 1818 14
17 146 17 3115 11 1706 -4 3758 -9 4561 -13z"/>
<path d="M4122 6710 c-80 -11 -122 -25 -195 -63 -68 -35 -166 -136 -202 -207
-59 -116 -105 -312 -105 -447 l0 -63 115 0 115 0 0 49 c0 81 29 223 59 286 57
121 154 185 292 193 99 6 162 -15 227 -73 56 -51 94 -116 116 -201 19 -74 20
-203 1 -259 l-13 -40 -1 68 c-1 37 -5 67 -11 67 -6 0 -10 -38 -10 -93 0 -92
-1 -95 -38 -147 -47 -69 -124 -133 -356 -298 -328 -234 -410 -333 -480 -575
-27 -91 -51 -228 -60 -329 l-5 -58 615 0 614 0 0 130 0 130 -486 0 -486 0 6
33 c9 48 70 166 113 217 58 70 145 143 277 232 379 256 485 363 550 558 37
110 47 296 22 405 -47 201 -156 365 -286 428 -106 51 -261 74 -388 57z"/>
<path d="M5451 6699 c-70 -14 -166 -64 -222 -115 -117 -111 -181 -276 -203
-531 l-6 -63 114 0 113 0 7 78 c12 140 57 255 121 309 76 65 203 96 306 74
103 -22 202 -114 231 -215 6 -23 11 -81 11 -131 0 -154 -53 -247 -173 -304
-47 -21 -72 -26 -167 -29 l-113 -4 0 -119 0 -119 90 0 c202 0 334 -66 391
-195 30 -67 42 -188 30 -278 -14 -99 -54 -178 -120 -240 -63 -59 -116 -84
-210 -97 -182 -26 -325 49 -382 199 -24 63 -49 186 -49 237 l0 34 -121 0 -122
0 7 -94 c18 -256 134 -479 293 -563 100 -54 163 -67 308 -68 212 0 323 41 447
166 132 132 198 311 198 534 0 238 -85 412 -240 490 l-53 27 29 18 c86 53 160
172 184 298 19 92 8 290 -20 371 -58 173 -186 282 -377 325 -77 17 -228 20
-302 5z"/>
<path d="M6561 6112 c-35 -306 -66 -571 -68 -588 l-5 -31 98 -7 98 -8 20 29
c36 51 111 118 159 141 95 47 229 47 322 1 101 -50 188 -171 214 -297 41 -199
-21 -450 -140 -557 -71 -64 -119 -80 -239 -80 -95 0 -110 3 -157 28 -101 52
-160 135 -189 267 l-16 70 -113 0 c-63 0 -116 -3 -118 -7 -8 -16 22 -180 45
-243 48 -132 139 -233 268 -299 88 -45 161 -62 268 -62 272 1 430 95 546 326
66 132 106 304 106 456 0 323 -176 586 -445 664 -143 42 -329 13 -434 -66 -29
-22 -54 -39 -56 -37 -2 2 13 135 33 296 l37 292 382 0 383 0 0 135 0 135 -467
0 -468 0 -64 -558z"/>
<path d="M1970 4100 c-382 -120 -735 -230 -785 -245 l-89 -27 799 -249 c439
-137 800 -249 802 -249 1 0 3 95 3 211 l0 211 1408 -6 c774 -3 1998 -9 2719
-12 l1313 -6 2 -208 3 -208 792 247 c521 161 786 249 775 253 -21 10 -1557
488 -1566 488 -3 0 -6 -106 -6 -236 l0 -236 -1407 6 c-775 3 -1999 9 -2720 12
l-1313 6 0 234 c0 217 -1 234 -17 233 -10 -1 -331 -99 -713 -219z"/>
</g>
</svg>
