<?xml version="1.0" standalone="no"?>
<!DOCTYPE svg PUBLIC "-//W3C//DTD SVG 20010904//EN"
 "http://www.w3.org/TR/2001/REC-SVG-20010904/DTD/svg10.dtd">
<svg version="1.0" xmlns="http://www.w3.org/2000/svg"
 width="1254.000000pt" height="1124.000000pt" viewBox="0 0 1254.000000 1124.000000"
 preserveAspectRatio="xMidYMid meet">
<metadata>
Created by potrace 1.16, written by Peter Selinger 2001-2019
</metadata>
<g transform="translate(0.000000,1124.000000) scale(0.100000,-0.100000)"
fill="#000000" stroke="none">
<path d="M5145 11019 c-2326 -20 -4301 -38 -4387 -38 l-158 -1 0 -119 c0 -98
3 -120 15 -123 11 -2 1675 -3016 1752 -3175 l16 -31 -1086 -1794 c-597 -986
-1088 -1800 -1092 -1808 -3 -10 413 -699 1115 -1845 616 -1007 1121 -1833
1122 -1838 2 -4 2068 11 4592 33 2524 22 4597 40 4607 40 17 0 19 8 19 74 0
50 4 76 13 79 10 3 10 9 0 26 -7 11 -13 28 -13 37 0 9 -9 23 -19 32 -16 14
-1942 3358 -1958 3398 -2 7 499 810 1113 1785 615 975 1118 1780 1118 1788 1
9 -440 804 -979 1768 l-980 1752 -290 -1 c-159 0 -2193 -18 -4520 -39z m5557
-1788 c488 -872 886 -1586 884 -1588 -2 -2 -2026 1 -4497 7 l-4494 11 -15 21
c-26 38 -1677 3053 -1674 3057 4 5 8383 79 8694 77 l215 -1 887 -1584z m-510
-1830 l1357 -6 -1075 -1704 c-591 -938 -1074 -1708 -1074 -1711 0 -4 441 -774
979 -1711 539 -937 978 -1706 976 -1708 -8 -7 -8770 -80 -8776 -73 -23 26
-2093 3420 -2093 3432 0 8 474 799 1054 1758 l1055 1742 3120 -6 c1716 -4
3731 -9 4477 -13z"/>
<path d="M3782 6730 c-80 -11 -122 -25 -195 -63 -68 -35 -166 -136 -202 -207
-59 -116 -105 -312 -105 -447 l0 -63 115 0 115 0 0 49 c0 81 29 223 59 286 57
121 154 185 292 193 99 6 162 -15 227 -73 56 -51 94 -116 116 -201 19 -74 20
-203 1 -259 l-13 -40 -1 68 c-1 37 -5 67 -11 67 -6 0 -10 -38 -10 -93 0 -92
-1 -95 -38 -147 -47 -69 -124 -133 -356 -298 -328 -234 -410 -333 -480 -575
-27 -91 -51 -228 -60 -329 l-5 -58 615 0 614 0 0 130 0 130 -486 0 -486 0 6
33 c9 48 70 166 113 217 58 70 145 143 277 232 379 256 485 363 550 558 37
110 47 296 22 405 -47 201 -156 365 -286 428 -106 51 -261 74 -388 57z"/>
<path d="M5111 6719 c-70 -14 -166 -64 -222 -115 -117 -111 -181 -276 -203
-531 l-6 -63 114 0 113 0 7 78 c12 140 57 255 121 309 76 65 203 96 306 74
103 -22 202 -114 231 -215 6 -23 11 -81 11 -131 0 -154 -53 -247 -173 -304
-47 -21 -72 -26 -167 -29 l-113 -4 0 -119 0 -119 90 0 c202 0 334 -66 391
-195 30 -67 42 -188 30 -278 -14 -99 -54 -178 -120 -240 -63 -59 -116 -84
-210 -97 -182 -26 -325 49 -382 199 -24 63 -49 186 -49 237 l0 34 -121 0 -122
0 7 -94 c18 -256 134 -479 293 -563 100 -54 163 -67 308 -68 212 0 323 41 447
166 132 132 198 311 198 534 0 238 -85 412 -240 490 l-53 27 29 18 c86 53 160
172 184 298 19 92 8 290 -20 371 -58 173 -186 282 -377 325 -77 17 -228 20
-302 5z"/>
<path d="M6221 6132 c-35 -306 -66 -571 -68 -588 l-5 -31 98 -7 98 -8 20 29
c36 51 111 118 159 141 95 47 229 47 322 1 101 -50 188 -171 214 -297 41 -199
-21 -450 -140 -557 -71 -64 -119 -80 -239 -80 -95 0 -110 3 -157 28 -101 52
-160 135 -189 267 l-16 70 -113 0 c-63 0 -116 -3 -118 -7 -8 -16 22 -180 45
-243 48 -132 139 -233 268 -299 88 -45 161 -62 268 -62 272 1 430 95 546 326
66 132 106 304 106 456 0 323 -176 586 -445 664 -143 42 -329 13 -434 -66 -29
-22 -54 -39 -56 -37 -2 2 13 135 33 296 l37 292 382 0 383 0 0 135 0 135 -467
0 -468 0 -64 -558z"/>
<path d="M1630 4120 c-382 -120 -735 -230 -785 -245 l-89 -27 799 -249 c439
-137 800 -249 802 -249 1 0 3 95 3 211 l0 211 1408 -6 c774 -3 1998 -9 2719
-12 l1313 -6 2 -208 3 -208 792 247 c521 161 786 249 775 253 -21 10 -1557
488 -1566 488 -3 0 -6 -106 -6 -236 l0 -236 -1407 6 c-775 3 -1999 9 -2720 12
l-1313 6 0 234 c0 217 -1 234 -17 233 -10 -1 -331 -99 -713 -219z"/>
</g>
</svg>
