<svg width="25.000000" height="21.000000" viewBox="0 0 25 21" fill="none" xmlns="http://www.w3.org/2000/svg" xmlns:xlink="http://www.w3.org/1999/xlink">
	<desc>
			Created with Pixso.
	</desc>
	<defs/>
	<rect x="0.500000" y="0.500000" width="24.000000" height="2.000000" stroke="#417A82" stroke-opacity="1.000000" stroke-width="1.000000"/>
	<rect x="2.500000" y="5.500000" width="20.000000" height="3.000000" stroke="#417A82" stroke-opacity="1.000000" stroke-width="1.000000"/>
	<rect x="2.500000" y="8.500000" width="20.000000" height="3.000000" stroke="#417A82" stroke-opacity="1.000000" stroke-width="1.000000"/>
	<rect x="2.500000" y="11.500000" width="20.000000" height="3.000000" stroke="#417A82" stroke-opacity="1.000000" stroke-width="1.000000"/>
	<rect x="2.500000" y="14.500000" width="20.000000" height="3.000000" stroke="#417A82" stroke-opacity="1.000000" stroke-width="1.000000"/>
	<rect x="2.500000" y="17.500000" width="20.000000" height="3.000000" stroke="#417A82" stroke-opacity="1.000000" stroke-width="1.000000"/>
	<path d="M4.5 2L4.5 6" stroke="#417A82" stroke-opacity="1.000000" stroke-width="1.000000"/>
	<line x1="4.500000" y1="6.000000" x2="4.500000" y2="7.000000" stroke="#417A82" stroke-opacity="1.000000" stroke-width="1.000000"/>
	<line x1="4.500000" y1="9.000000" x2="4.500000" y2="10.000000" stroke="#417A82" stroke-opacity="1.000000" stroke-width="1.000000"/>
	<line x1="4.500000" y1="11.045410" x2="4.500000" y2="11.799316" stroke="#417A82" stroke-opacity="1.000000" stroke-width="1.000000"/>
	<line x1="4.500000" y1="14.060547" x2="4.500000" y2="14.814453" stroke="#417A82" stroke-opacity="1.000000" stroke-width="1.000000"/>
	<line x1="4.500000" y1="18.000000" x2="4.500000" y2="19.000000" stroke="#417A82" stroke-opacity="1.000000" stroke-width="1.000000"/>
	<line x1="4.500000" y1="15.000000" x2="4.500000" y2="16.000000" stroke="#417A82" stroke-opacity="1.000000" stroke-width="1.000000"/>
	<line x1="4.500000" y1="12.000000" x2="4.500000" y2="13.000000" stroke="#417A82" stroke-opacity="1.000000" stroke-width="1.000000"/>
	<path d="M20.49 2L20.49 5.5" stroke="#417A82" stroke-opacity="1.000000" stroke-width="1.000000"/>
	<line x1="20.499878" y1="6.000000" x2="20.499878" y2="7.000000" stroke="#417A82" stroke-opacity="1.000000" stroke-width="1.000000"/>
	<line x1="20.499878" y1="9.000000" x2="20.499878" y2="10.000000" stroke="#417A82" stroke-opacity="1.000000" stroke-width="1.000000"/>
	<line x1="20.499878" y1="18.000000" x2="20.499878" y2="19.000000" stroke="#417A82" stroke-opacity="1.000000" stroke-width="1.000000"/>
	<line x1="20.499878" y1="15.000000" x2="20.499878" y2="16.000000" stroke="#417A82" stroke-opacity="1.000000" stroke-width="1.000000"/>
	<line x1="20.499878" y1="12.000000" x2="20.499878" y2="13.000000" stroke="#417A82" stroke-opacity="1.000000" stroke-width="1.000000"/>
</svg>
