<svg width="23.000000" height="23.000000" viewBox="0 0 23 23" fill="none" xmlns="http://www.w3.org/2000/svg" xmlns:xlink="http://www.w3.org/1999/xlink">
	<desc>
			Created with Pixso.
	</desc>
	<defs/>
	<path d="M19 1L4 1C2.34 1 1 2.34 1 4L1 19C1 20.65 2.34 22 4 22L19 22C20.65 22 22 20.65 22 19L22 4C22 2.34 20.65 1 19 1ZM4 0C1.79 0 0 1.79 0 4L0 19C0 21.2 1.79 23 4 23L19 23C21.2 23 23 21.2 23 19L23 4C23 1.79 21.2 0 19 0L4 0Z" fill="#B84C74" fill-opacity="1.000000" fill-rule="evenodd"/>
	<path d="M18.1 14.86L13.01 14.86L13.01 13.86L18.1 13.86L18.1 14.86Z" fill="#B84C74" fill-opacity="1.000000" fill-rule="evenodd"/>
	<path d="M18.1 7.74L13.01 7.74L13.01 6.74L18.1 6.74L18.1 7.74Z" fill="#B84C74" fill-opacity="1.000000" fill-rule="evenodd"/>
	<path d="M9.34 17.87L4.52 13.05L5.23 12.34L10.04 17.16L9.34 17.87Z" fill="#B84C74" fill-opacity="1.000000" fill-rule="evenodd"/>
	<path d="M9.96 7.74L4.88 7.74L4.88 6.74L9.96 6.74L9.96 7.74Z" fill="#B84C74" fill-opacity="1.000000" fill-rule="evenodd"/>
	<path d="M7.93 4.69L7.93 9.77L6.93 9.77L6.93 4.69L7.93 4.69Z" fill="#B84C74" fill-opacity="1.000000" fill-rule="evenodd"/>
	<path d="M10.04 13.05L5.23 17.87L4.52 17.16L9.34 12.34L10.04 13.05Z" fill="#B84C74" fill-opacity="1.000000" fill-rule="evenodd"/>
	<path d="M18.1 16.89L13.01 16.89L13.01 15.89L18.1 15.89L18.1 16.89Z" fill="#B84C74" fill-opacity="1.000000" fill-rule="evenodd"/>
</svg>
