<svg width="25.000000" height="25.070801" viewBox="0 0 25 25.0708" fill="none" xmlns="http://www.w3.org/2000/svg" xmlns:xlink="http://www.w3.org/1999/xlink">
	<desc>
			Created with Pixso.
	</desc>
	<defs/>
	<path d="M4.69 17.02L2.98 17.02C2.56 17.02 2.22 17.33 2.18 17.74L1.77 21.79C1.65 23.01 2.61 24.07 3.83 24.07C5.06 24.07 6.02 23.01 5.89 21.79L5.49 17.74C5.45 17.33 5.1 17.02 4.69 17.02ZM2.98 16.02C2.05 16.02 1.28 16.72 1.18 17.64L0.78 21.69C0.6 23.5 2.02 25.07 3.83 25.07C5.65 25.07 7.07 23.5 6.89 21.69L6.48 17.64C6.39 16.72 5.62 16.02 4.69 16.02L2.98 16.02Z" fill="#417A82" fill-opacity="1.000000" fill-rule="evenodd"/>
	<path d="M4.96 19.41C4.96 20.04 4.46 20.54 3.83 20.54C3.21 20.54 2.7 20.04 2.7 19.41C2.7 18.79 3.21 18.28 3.83 18.28C4.46 18.28 4.96 18.79 4.96 19.41Z" fill="#417A82" fill-opacity="1.000000" fill-rule="nonzero"/>
	<path d="M24 1L1 1L1 2L24 2L24 1ZM0 0L0 3L25 3L25 0L0 0Z" fill="#417A82" fill-opacity="1.000000" fill-rule="evenodd"/>
	<path d="M22.01 22L22.01 3L23.01 3L23.01 22L22.01 22Z" fill="#417A82" fill-opacity="1.000000" fill-rule="evenodd"/>
	<path d="M17.03 20L17.03 5L18.03 5L18.03 20L17.03 20Z" fill="#417A82" fill-opacity="1.000000" fill-rule="evenodd"/>
	<path d="M14 20.07L14 5L15 5L15 20.07L14 20.07Z" fill="#417A82" fill-opacity="1.000000" fill-rule="evenodd"/>
	<path d="M11 20.07L11 5L12 5L12 20.07L11 20.07Z" fill="#417A82" fill-opacity="1.000000" fill-rule="evenodd"/>
	<path d="M8 19.04L8 5L9 5L9 19.04L8 19.04Z" fill="#417A82" fill-opacity="1.000000" fill-rule="evenodd"/>
	<path d="M5 15L5 5L6 5L6 15L5 15Z" fill="#417A82" fill-opacity="1.000000" fill-rule="evenodd"/>
	<path d="M2 4L20.92 4L20.92 22L8 22L8 21L19.92 21L19.92 5L3 5L3 14.92L2 14.92L2 4Z" fill="#417A82" fill-opacity="1.000000" fill-rule="evenodd"/>
</svg>
