<svg width="25.000000" height="23.000000" viewBox="0 0 25 23" fill="none" xmlns="http://www.w3.org/2000/svg" xmlns:xlink="http://www.w3.org/1999/xlink">
	<desc>
			Created with Pixso.
	</desc>
	<defs/>
	<path d="M24 21L1 21L1 22L24 22L24 21ZM0 20L0 23L25 23L25 20L0 20Z" fill="#417A82" fill-opacity="1.000000" fill-rule="evenodd"/>
	<path d="M22 19L3 19L3 20L22 20L22 19ZM2 18L2 21L23 21L23 18L2 18Z" fill="#417A82" fill-opacity="1.000000" fill-rule="evenodd"/>
	<path d="M13.45 6.7L11.54 6.7C11.54 6.7 11.54 6.7 11.54 6.7L11.54 6.69L11.54 6.69C11.54 6.69 11.54 6.69 11.54 6.69L11.54 6.7C11.54 6.71 11.53 6.72 11.52 6.75C11.5 6.8 11.47 6.87 11.43 6.96C11.34 7.15 11.21 7.39 11.02 7.63C10.65 8.1 10.13 8.5 9.37 8.5C8.61 8.5 8.09 8.1 7.72 7.63C7.53 7.39 7.4 7.15 7.31 6.96C7.27 6.87 7.24 6.8 7.22 6.75C7.21 6.72 7.2 6.71 7.2 6.7L7.2 6.69C7.2 6.69 7.2 6.69 7.2 6.69L7.2 6.69L7.2 6.7C7.2 6.7 7.2 6.7 7.2 6.7L5.29 6.7C5.29 6.7 5.29 6.7 5.29 6.7L5.29 6.69L5.29 6.69C5.29 6.69 5.29 6.69 5.29 6.69L5.29 6.7C5.29 6.71 5.28 6.72 5.27 6.75C5.25 6.8 5.22 6.87 5.18 6.96C5.09 7.15 4.96 7.39 4.77 7.63C4.4 8.1 3.88 8.5 3.12 8.5C2.3 8.5 1.77 8.13 1.42 7.74C1.27 7.58 1.16 7.41 1.08 7.28L2.69 3L22.3 3L23.91 7.28C23.83 7.41 23.72 7.58 23.57 7.74C23.22 8.13 22.69 8.5 21.87 8.5C21.11 8.5 20.59 8.1 20.22 7.63C20.03 7.39 19.9 7.15 19.81 6.96C19.77 6.87 19.74 6.8 19.72 6.75C19.71 6.72 19.7 6.71 19.7 6.7L19.7 6.69L19.7 6.7C19.7 6.7 19.7 6.7 19.7 6.7L17.79 6.7C17.79 6.7 17.79 6.7 17.79 6.7L17.79 6.69L17.79 6.7C17.79 6.71 17.78 6.72 17.77 6.75C17.75 6.8 17.72 6.87 17.68 6.96C17.59 7.15 17.46 7.39 17.27 7.63C16.9 8.1 16.38 8.5 15.62 8.5C14.86 8.5 14.34 8.1 13.97 7.63C13.78 7.39 13.65 7.15 13.56 6.96C13.52 6.87 13.49 6.8 13.47 6.75C13.46 6.72 13.45 6.71 13.45 6.7L13.45 6.69C13.45 6.69 13.45 6.69 13.45 6.69L13.45 6.69L13.45 6.7C13.45 6.7 13.45 6.7 13.45 6.7ZM18.16 8.12C18.57 7.54 18.75 7 18.75 7C18.75 7 18.92 7.54 19.33 8.12C19.81 8.78 20.62 9.5 21.87 9.5C24.21 9.5 25 7.33 25 7.33L23 2L2 2L0 7.33C0 7.33 0.78 9.5 3.12 9.5C4.37 9.5 5.18 8.78 5.66 8.12C6.07 7.54 6.25 7 6.25 7C6.25 7 6.42 7.54 6.83 8.12C7.31 8.78 8.12 9.5 9.37 9.5C10.62 9.5 11.43 8.78 11.91 8.12C12.32 7.54 12.5 7 12.5 7C12.5 7 12.67 7.54 13.08 8.12C13.56 8.78 14.37 9.5 15.62 9.5C16.87 9.5 17.68 8.78 18.16 8.12Z" fill="#417A82" fill-opacity="1.000000" fill-rule="evenodd"/>
	<path d="M2 18L2 9L3 9L3 18L2 18Z" fill="#417A82" fill-opacity="1.000000" fill-rule="evenodd"/>
	<path d="M22 18L22 9L23 9L23 18L22 18Z" fill="#417A82" fill-opacity="1.000000" fill-rule="evenodd"/>
	<path d="M22 1L3 1L3 2L22 2L22 1ZM2 0L2 3L23 3L23 0L2 0Z" fill="#417A82" fill-opacity="1.000000" fill-rule="evenodd"/>
	<path d="M24 7L1 7L1 6L24 6L24 7Z" fill="#417A82" fill-opacity="1.000000" fill-rule="evenodd"/>
</svg>
