<svg width="26.518799" height="7.473145" viewBox="0 0 26.5188 7.47314" fill="none" xmlns="http://www.w3.org/2000/svg" xmlns:xlink="http://www.w3.org/1999/xlink">
	<desc>
			Created with Pixso.
	</desc>
	<defs/>
	<path id="LOGO" d="M8.26 0C10.12 0 11.47 1.43 11.47 3.73C11.47 6.03 10.12 7.47 8.26 7.47C6.4 7.47 5.05 6.03 5.05 3.73C5.05 1.43 6.4 0 8.26 0ZM18.83 2.37L17.92 2.37C17.61 1.41 16.9 0.82 15.85 0.82C14.55 0.82 13.52 1.84 13.52 3.73C13.52 5.62 14.55 6.64 15.9 6.64C17.14 6.64 18 5.82 18.02 4.51L16.1 4.51L16.1 3.73L18.87 3.73L18.87 4.51C18.87 6.31 17.64 7.47 15.9 7.47C13.97 7.47 12.66 6.03 12.66 3.73C12.66 1.43 13.98 0 15.85 0C17.38 0 18.56 0.96 18.83 2.37ZM23.3 0C25.16 0 26.51 1.43 26.51 3.73C26.51 6.03 25.16 7.47 23.3 7.47C21.44 7.47 20.09 6.03 20.09 3.73C20.09 1.43 21.44 0 23.3 0ZM4.26 7.37L0 7.37L0 0.1L0.87 0.1L0.87 6.59L4.26 6.59L4.26 7.37ZM8.26 6.64C9.58 6.64 10.62 5.62 10.62 3.73C10.62 1.84 9.58 0.82 8.26 0.82C6.94 0.82 5.9 1.84 5.9 3.73C5.9 5.62 6.94 6.64 8.26 6.64ZM23.3 6.64C24.62 6.64 25.66 5.62 25.66 3.73C25.66 1.84 24.62 0.82 23.3 0.82C21.98 0.82 20.94 1.84 20.94 3.73C20.94 5.62 21.98 6.64 23.3 6.64Z" fill="#FFFFFF" fill-opacity="1.000000" fill-rule="evenodd"/>
</svg>
