<svg width="25.000000" height="23.000244" viewBox="0 0 25 23.0002" fill="none" xmlns="http://www.w3.org/2000/svg" xmlns:xlink="http://www.w3.org/1999/xlink">
	<desc>
			Created with Pixso.
	</desc>
	<defs/>
	<path d="M24 1L1 1L1 2L24 2L24 1ZM0 0L0 3L25 3L25 0L0 0Z" fill="#417A82" fill-opacity="1.000000" fill-rule="evenodd"/>
	<path d="M22 3L3 3L3 22L22 22L22 3ZM2 23L2 2L23 2L23 23L2 23Z" fill="#417A82" fill-opacity="1.000000" fill-rule="evenodd"/>
	<path d="M3 12.79C3.03 12.78 3.07 12.76 3.1 12.75C3.46 12.58 3.79 12.33 4.08 12.01C4.36 11.69 4.59 11.31 4.75 10.87C4.91 10.44 5 9.97 5 9.5C5 9.02 4.91 8.55 4.75 8.12C4.59 7.68 4.36 7.3 4.08 6.98C3.79 6.66 3.46 6.41 3.1 6.24C3.07 6.23 3.03 6.21 3 6.2L3 12.79ZM3 13.85C3.18 13.8 3.35 13.73 3.53 13.65C4.01 13.43 4.45 13.09 4.82 12.68C5.19 12.26 5.49 11.76 5.69 11.22C5.89 10.67 6 10.09 6 9.5C6 8.9 5.89 8.32 5.69 7.77C5.49 7.23 5.19 6.73 4.82 6.31C4.45 5.9 4.01 5.56 3.53 5.34C3.35 5.26 3.18 5.19 3 5.14C2.67 5.04 2.33 5 2 5L2 14C2.33 14 2.67 13.95 3 13.85Z" fill="#417A82" fill-opacity="1.000000" fill-rule="evenodd"/>
	<path d="M19.79 22C19.78 21.96 19.76 21.92 19.75 21.89C19.58 21.53 19.33 21.2 19.01 20.91C18.69 20.63 18.31 20.4 17.87 20.24C17.44 20.08 16.97 20 16.5 20C16.02 20 15.55 20.08 15.12 20.24C14.69 20.4 14.3 20.63 13.98 20.91C13.66 21.2 13.41 21.53 13.24 21.89C13.23 21.92 13.21 21.96 13.2 22L19.79 22ZM20.85 22C20.8 21.81 20.73 21.64 20.65 21.46C20.43 20.98 20.09 20.54 19.68 20.17C19.26 19.8 18.76 19.5 18.22 19.3C17.67 19.1 17.09 19 16.5 19C15.9 19 15.32 19.1 14.77 19.3C14.23 19.5 13.73 19.8 13.31 20.17C12.9 20.54 12.56 20.98 12.34 21.46C12.26 21.64 12.19 21.81 12.14 22C12.04 22.32 12 22.66 12 23L21 23C21 22.66 20.95 22.32 20.85 22Z" fill="#417A82" fill-opacity="1.000000" fill-rule="evenodd"/>
	<path d="M18.5 8C19.32 8 20 7.32 20 6.5C20 5.67 19.32 5 18.5 5C17.67 5 17 5.67 17 6.5C17 7.32 17.67 8 18.5 8ZM18.5 9C19.88 9 21 7.88 21 6.5C21 5.11 19.88 4 18.5 4C17.11 4 16 5.11 16 6.5C16 7.88 17.11 9 18.5 9Z" fill="#417A82" fill-opacity="1.000000" fill-rule="evenodd"/>
	<path d="M6.5 20C7.32 20 8 19.32 8 18.5C8 17.67 7.32 17 6.5 17C5.67 17 5 17.67 5 18.5C5 19.32 5.67 20 6.5 20ZM6.5 21C7.88 21 9 19.88 9 18.5C9 17.11 7.88 16 6.5 16C5.11 16 4 17.11 4 18.5C4 19.88 5.11 21 6.5 21Z" fill="#417A82" fill-opacity="1.000000" fill-rule="evenodd"/>
	<path d="M14.5 16C15.88 16 17 14.88 17 13.5C17 12.11 15.88 11 14.5 11C13.11 11 12 12.11 12 13.5C12 14.88 13.11 16 14.5 16ZM14.5 17C16.43 17 18 15.43 18 13.5C18 11.56 16.43 10 14.5 10C12.56 10 11 11.56 11 13.5C11 15.43 12.56 17 14.5 17Z" fill="#417A82" fill-opacity="1.000000" fill-rule="evenodd"/>
	<path d="M10 22L10 3L11 3L11 22L10 22Z" fill="#417A82" fill-opacity="1.000000" fill-rule="evenodd"/>
	<path d="M14 22L14 3L15 3L15 22L14 22Z" fill="#417A82" fill-opacity="1.000000" fill-rule="evenodd"/>
	<path d="M18 22L18 3L19 3L19 22L18 22Z" fill="#417A82" fill-opacity="1.000000" fill-rule="evenodd"/>
	<path d="M6 22L6 3L7 3L7 22L6 22Z" fill="#417A82" fill-opacity="1.000000" fill-rule="evenodd"/>
</svg>
