<svg width="25.000000" height="21.075195" viewBox="0 0 25 21.0752" fill="none" xmlns="http://www.w3.org/2000/svg" xmlns:xlink="http://www.w3.org/1999/xlink">
	<desc>
			Created with Pixso.
	</desc>
	<defs/>
	<path d="M22 5.5L23.06 2L1.95 2L3 5.5L2 8.5L3 11.5L2 14.5L3 17.5L1.95 21.07L23.06 21.07L22 17.5L23 14.5L22 11.5L23 8.5L22 5.5ZM21.94 8.5L20.95 5.51L21.71 3L3.29 3L4.04 5.51L3.05 8.5L4.05 11.5L3.05 14.5L4.04 17.48L3.28 20.07L21.72 20.07L20.95 17.48L21.94 14.5L20.94 11.5L21.94 8.5Z" fill="#417A82" fill-opacity="1.000000" fill-rule="evenodd"/>
	<path d="M24 1L1 1L1 2L24 2L24 1ZM0 0L0 3L25 3L25 0L0 0Z" fill="#417A82" fill-opacity="1.000000" fill-rule="evenodd"/>
	<path d="M21.5 6L3 6L3 5L21.5 5L21.5 6Z" fill="#417A82" fill-opacity="1.000000" fill-rule="evenodd"/>
	<path d="M21.5 12L3.5 12L3.5 11L21.5 11L21.5 12Z" fill="#417A82" fill-opacity="1.000000" fill-rule="evenodd"/>
	<path d="M22.3 15L2.7 15L2.7 14L22.3 14L22.3 15Z" fill="#417A82" fill-opacity="1.000000" fill-rule="evenodd"/>
	<path d="M22.3 21.07L2.7 21.07L2.7 20.07L22.3 20.07L22.3 21.07Z" fill="#417A82" fill-opacity="1.000000" fill-rule="evenodd"/>
	<path d="M22.59 9L3 9L3 8L22.59 8L22.59 9Z" fill="#417A82" fill-opacity="1.000000" fill-rule="evenodd"/>
	<path d="M21.5 18L3.5 18L3.5 17L21.5 17L21.5 18Z" fill="#417A82" fill-opacity="1.000000" fill-rule="evenodd"/>
</svg>
