<svg width="21.105530" height="21.105469" viewBox="0 0 21.1055 21.1055" fill="none" xmlns="http://www.w3.org/2000/svg" xmlns:xlink="http://www.w3.org/1999/xlink">
	<desc>
			Created with Pixso.
	</desc>
	<defs/>
	<path d="M12.84 1.99L10.55 0L8.25 1.99L5.27 1.41L4.28 4.28L1.41 5.27L1.99 8.25L0 10.55L1.99 12.84L1.41 15.82L4.28 16.82L5.27 19.69L8.25 19.11L10.55 21.1L12.84 19.11L15.82 19.69L16.82 16.82L19.69 15.82L19.11 12.84L21.1 10.55L19.11 8.25L19.69 5.27L16.82 4.28L15.82 1.41L12.84 1.99ZM15.16 2.56L12.55 3.06L10.55 1.32L8.54 3.06L5.93 2.56L5.07 5.07L2.56 5.93L3.06 8.54L1.32 10.55L3.06 12.55L2.56 15.16L5.07 16.03L5.93 18.54L8.54 18.04L10.55 19.78L12.55 18.04L15.16 18.54L16.03 16.03L18.54 15.16L18.04 12.55L19.78 10.55L18.04 8.54L18.54 5.93L16.03 5.07L15.16 2.56Z" fill="#417A82" fill-opacity="1.000000" fill-rule="evenodd"/>
	<path d="M10.55 15.58C13.33 15.58 15.58 13.33 15.58 10.55C15.58 7.77 13.33 5.52 10.55 5.52C7.77 5.52 5.52 7.77 5.52 10.55C5.52 13.33 7.77 15.58 10.55 15.58ZM10.55 16.58C13.88 16.58 16.58 13.88 16.58 10.55C16.58 7.22 13.88 4.52 10.55 4.52C7.22 4.52 4.52 7.22 4.52 10.55C4.52 13.88 7.22 16.58 10.55 16.58Z" fill="#417A82" fill-opacity="1.000000" fill-rule="evenodd"/>
</svg>
