<svg width="20.898132" height="20.619629" viewBox="0 0 20.8981 20.6196" fill="none" xmlns="http://www.w3.org/2000/svg" xmlns:xlink="http://www.w3.org/1999/xlink">
	<desc>
			Created with Pixso.
	</desc>
	<defs/>
	<path d="M5.13 0.95C5.56 0.26 6.38 -0.13 7.23 0.03L18 2.19C19.71 2.53 20.89 4.03 20.89 5.71C20.89 5.94 20.87 6.18 20.82 6.42C20.43 8.37 18.54 9.63 16.59 9.24L15.61 9.04L15.61 14.58L17.38 14.58L17.9 16.47L17.38 20.61L7.88 20.61L7.35 16.47L7.88 14.58L9.61 14.58L9.61 7.84L5.82 7.08C4.97 6.91 4.36 6.24 4.23 5.43L3.86 5.36C2.91 5.17 2.25 4.33 2.25 3.4L2.25 3.39L0 2.94L0.19 1.96L2.41 2.4C2.64 1.34 3.68 0.66 4.75 0.87L5.13 0.95ZM5.8 6.04L6.81 1C6.35 1.01 5.95 1.33 5.85 1.8L5.23 4.93C5.22 4.99 5.21 5.06 5.21 5.12C5.21 5.52 5.44 5.88 5.8 6.04ZM7.8 1.17L6.78 6.26L16.79 8.26C16.98 8.3 17.18 8.31 17.37 8.31L18.36 3.35C18.19 3.27 18 3.21 17.81 3.17L7.8 1.17ZM18.44 8.04C19.14 7.7 19.68 7.04 19.84 6.22C19.88 6.05 19.89 5.88 19.89 5.71C19.89 5.07 19.66 4.47 19.25 4L18.44 8.04ZM4.8 1.9L4.56 1.85C4.02 1.75 3.49 2.1 3.38 2.64L3.27 3.2C3.26 3.27 3.25 3.33 3.25 3.4C3.25 3.87 3.58 4.28 4.05 4.38L4.3 4.43L4.8 1.9ZM10.61 8.05L10.61 14.57L14.61 14.57L14.61 8.85L10.61 8.05ZM8.64 15.58L8.37 16.54L8.37 16.57L16.88 16.57L16.89 16.54L16.62 15.58L8.64 15.58ZM8.5 17.57L8.76 19.61L16.5 19.61L16.76 17.57L8.5 17.57Z" fill="#417A82" fill-opacity="1.000000" fill-rule="evenodd"/>
</svg>
